<svg xmlns="http://www.w3.org/2000/svg" version="1.1" xmlns:xlink="http://www.w3.org/1999/xlink" xmlns:svgjs="http://svgjs.dev/svgjs" width="1440" height="560" preserveAspectRatio="none" viewBox="0 0 1440 560">
    <g mask="url(&quot;#SvgjsMask1024&quot;)" fill="none">
        <rect width="1440" height="560" x="0" y="0" fill="rgba(43, 43, 43, 1)"></rect>
        <path d="M0,379.062C77.611,389.375,162.943,398.358,228.996,356.325C295.114,314.251,317.703,231.147,346.797,158.377C374.608,88.817,394.965,18.243,394.113,-56.665C393.164,-140.03,405.499,-242.441,341.626,-296.021C276.247,-350.863,172.766,-285.524,91.238,-310.729C7.745,-336.542,-43.69,-457.185,-129.706,-441.739C-213.207,-426.745,-243.352,-319.654,-281.381,-243.818C-312.199,-182.362,-317.687,-115.133,-327.602,-47.102C-337.538,21.074,-364.411,90.811,-339.511,155.05C-314.144,220.495,-251.548,261.6,-192.962,300.255C-133.771,339.31,-70.296,369.721,0,379.062" fill="#222222"></path>
        <path d="M1440 1073.687C1534.836 1069.285 1614.339 1005.892 1688.321 946.395 1756.145 891.851 1805.047 822.088 1847.401 746.054 1893.086 664.04 1943.481 581.427 1943.916 487.548 1944.386 386.177 1915.497 282.107 1849.911 204.81 1784.042 127.17899999999997 1687.137 67.39800000000002 1585.356 64.96100000000001 1488.914 62.65199999999999 1424.647 165.296 1332.066 192.41000000000003 1239.382 219.55399999999997 1123.688 159.721 1049.732 221.83100000000002 976.384 283.431 977.3389999999999 397.289 974.1279999999999 493.01800000000003 971.165 581.36 997.6410000000001 664.881 1032.142 746.262 1067.512 829.692 1105.745 913.427 1176.409 970.156 1251.5430000000001 1030.473 1343.754 1078.154 1440 1073.687" fill="#343434"></path>
    </g>
    <defs>
        <mask id="SvgjsMask1024">
            <rect width="1440" height="560" fill="#ffffff"></rect>
        </mask>
    </defs>
</svg>